<?xml version="1.0" encoding="UTF-8"?>
<svg width="800" height="800" xmlns="http://www.w3.org/2000/svg">
    <style>
        @media (prefers-color-scheme: dark) {
            .text { fill: #ffffff; }
            .box-border { stroke: #ffffff; }
        }
    </style>
    
    <!-- 标题 -->
    <text x="50" y="50" font-size="24" class="text" fill="#ffffff">整体架构</text>
    
    <!-- 表示层 -->
    <g transform="translate(200,150)">
        <rect width="400" height="120" fill="#1a365d" rx="10" class="box-border" stroke="#ffffff" stroke-width="1"/>
        <text x="20" y="40" font-size="20" fill="#ffffff" class="text">表示层 (Presentation Layer)</text>
        
        <rect x="40" y="60" width="150" height="40" fill="#2b6cb0" rx="5"/>
        <text x="65" y="85" font-size="16" fill="#ffffff" class="text">SwiftUI Views</text>
        
        <rect x="210" y="60" width="150" height="40" fill="#2b6cb0" rx="5"/>
        <text x="235" y="85" font-size="16" fill="#ffffff" class="text">View Models</text>
    </g>
    
    <!-- 业务层 -->
    <g transform="translate(200,320)">
        <rect width="400" height="180" fill="#1c4532" rx="10" class="box-border" stroke="#ffffff" stroke-width="1"/>
        <text x="20" y="40" font-size="20" fill="#ffffff" class="text">业务层 (Business Layer)</text>
        
        <rect x="40" y="60" width="150" height="40" fill="#2f855a" rx="5"/>
        <text x="55" y="85" font-size="14" fill="#ffffff" class="text">TranslationManager</text>
        
        <rect x="210" y="60" width="150" height="40" fill="#2f855a" rx="5"/>
        <text x="240" y="85" font-size="14" fill="#ffffff" class="text">AudioManager</text>
        
        <rect x="40" y="120" width="150" height="40" fill="#2f855a" rx="5"/>
        <text x="55" y="145" font-size="14" fill="#ffffff" class="text">LanguageManager</text>
        
        <rect x="210" y="120" width="150" height="40" fill="#2f855a" rx="5"/>
        <text x="240" y="145" font-size="14" fill="#ffffff" class="text">HistoryManager</text>
    </g>
    
    <!-- 数据层 -->
    <g transform="translate(200,550)">
        <rect width="400" height="120" fill="#744210" rx="10" class="box-border" stroke="#ffffff" stroke-width="1"/>
        <text x="20" y="40" font-size="20" fill="#ffffff" class="text">数据层 (Data Layer)</text>
        
        <rect x="40" y="60" width="100" height="40" fill="#975a16" rx="5"/>
        <text x="50" y="85" font-size="14" fill="#ffffff" class="text">OpenAI API</text>
        
        <rect x="150" y="60" width="100" height="40" fill="#975a16" rx="5"/>
        <text x="170" y="85" font-size="14" fill="#ffffff" class="text">CoreData</text>
        
        <rect x="260" y="60" width="100" height="40" fill="#975a16" rx="5"/>
        <text x="280" y="85" font-size="14" fill="#ffffff" class="text">Keychain</text>
    </g>
    
    <!-- 箭头 -->
    <g stroke="#ffffff" stroke-width="2" fill="none">
        <!-- 表示层到业务层 -->
        <path d="M400,270 L400,310 M390,300 L400,310 L410,300" />
        
        <!-- 业务层到数据层 -->
        <path d="M400,500 L400,540 M390,530 L400,540 L410,530" />
    </g>
</svg>
